# xmcd
#
# Track frame offsets:
#	150
#	18457
#	32845
#	47523
#	74405
#	102520
#	123680
#	141760
#	155622
#	170995
#	180505
#
# Disc length: 2803 seconds
#
# Revision: 2
# Processed by: cddbd v1.5.2PL0 Copyright (c) Steve Scherf et al.
# Submitted via: EasyCDDAExtractor 2011.0.0.0
#
DISCID=9f0af10b
DTITLE=Wentus Blues Band with Pelle Lindström - Hoy, Hoy!
DYEAR=1999
DGENRE=Blues
TTITLE0=300 Pounds of Joy
TTITLE1=The things i do for you
TTITLE2=The man and the dokey
TTITLE3=Gor my mojo working
TTITLE4=Mr. Cleanhead
TTITLE5=Linda Lou
TTITLE6=Keep your hands off her
TTITLE7=I´m ready
TTITLE8=Same thing
TTITLE9=New Orleans woman
TTITLE10=Directly from my heart
EXTD=
EXTT0=
EXTT1=
EXTT2=
EXTT3=
EXTT4=
EXTT5=
EXTT6=
EXTT7=
EXTT8=
EXTT9=
EXTT10=
PLAYORDER=
